:SAMPLES-PER-SECOND 30
:FRAME-RANGE 1-2775
:FULLY-SPECIFIED
:DEGREES
1735
root  22.7589 38.2502 26.8293 11.5003 59.1642 9.59903
RightUpLeg  -12.2013 6.87118 -10.3472
RightLeg  67.7316 3.19026 7.88561
RightFoot  0.0281752 -1.23784 12.3921
RightToes  1.218e-010 1.26228e-014 -6.01869e-014
Spine  -4.7842 3.48275 0.137484
Spine1  10.936 4.64007 -7.07184
HEad  14.1508 52.1933 -8.27198
LeftShoulder1  0.282488 2.33563 -23.1067
LeftArm  3.11616 8.7123 -50.9374
LeftForeArm  29.5941 -8.59961 -11.4462
LeftHand  -0.0292533 5.2406 2.93299
RightShoulder  1.80158 3.01513 22.2961
RightArm  -24.7231 -4.79969 46.1263
RightForeArm  53.3493 -1.69882 4.8933
RightHand  0.0156722 -5.60672 -16.1489
LeftUpLeg  -22.925 -0.564842 -12.1411
LeftLeg  21.1385 22.4388 8.22973
LeftFoot  -2.46644 -0.479489 6.36399
LeftToes  5.08156e-010 -6.90346e-011 -6.33378e-011
1736
root  23.9391 38.3574 27.2311 12.1806 61.9887 10.6486
RightUpLeg  -15.6029 6.89798 -10.3103
RightLeg  69.5823 1.50994 3.75101
RightFoot  -0.879117 -0.909262 9.84254
RightToes  1.218e-010 1.26228e-014 -6.01869e-014
Spine  -4.47617 3.08558 -0.120651
Spine1  10.4844 4.09113 -6.78396
HEad  15.9732 53.3738 -7.28145
LeftShoulder1  0.318136 2.21726 -23.2155
LeftArm  12.5356 6.87934 -52.217
LeftForeArm  21.9675 -14.9301 -8.89891
LeftHand  -0.0439465 4.77908 4.18356
RightShoulder  1.69874 2.6043 22.5405
RightArm  -26.1219 -7.31698 45.1955
RightForeArm  56.6447 -4.34169 3.8283
RightHand  0.0461538 -5.85296 -15.5119
LeftUpLeg  -20.2608 -1.48114 -12.9366
LeftLeg  21.055 20.9087 7.61948
LeftFoot  -4.5341 -0.355685 6.43369
LeftToes  5.08156e-010 -6.90346e-011 -6.33378e-011
1737
root  25.1186 38.4723 27.6464 12.6085 65.1904 11.4685
RightUpLeg  -18.4943 7.39329 -9.99071
RightLeg  68.8165 0.264509 0.0203135
RightFoot  -1.45736 -0.641005 7.28783
RightToes  1.218e-010 1.26228e-014 -6.01869e-014
Spine  -4.34497 2.64457 -0.33759
Spine1  10.2678 3.48354 -6.19888
HEad  17.3995 54.2093 -6.20333
LeftShoulder1  0.384827 1.97776 -22.945
LeftArm  19.3643 4.84191 -53.9052
LeftForeArm  16.4783 -19.7239 -5.80214
LeftHand  -0.0502116 4.68194 4.81375
RightShoulder  1.62459 2.2724 22.9347
RightArm  -27.4932 -10.1032 44.2722
RightForeArm  57.9112 -5.64784 2.97406
RightHand  0.0815604 -6.14066 -15.2007
LeftUpLeg  -17.3034 -1.94769 -13.425
LeftLeg  20.6429 18.6865 6.74483
LeftFoot  -6.44788 -0.243937 6.61141
LeftToes  5.08156e-010 -6.90346e-011 -6.33378e-011
1738
root  26.265 38.4975 28.0821 13.7665 68.4462 12.9052
RightUpLeg  -21.1279 9.00238 -10.0142
RightLeg  66.1453 -1.03721 -3.21617
RightFoot  -4.64788 -0.388202 6.09031
RightToes  1.218e-010 1.26228e-014 -6.01869e-014
Spine  -4.15837 2.18499 -1.19456
Spine1  9.85583 2.81447 -5.38889
HEad  18.6016 54.8063 -4.91036
LeftShoulder1  0.500511 1.55213 -22.4764
LeftArm  21.2409 3.00422 -55.4053
LeftForeArm  16.3211 -23.3433 -4.19468
LeftHand  -0.0516631 4.60441 4.57414
RightShoulder  1.53801 1.87414 23.5231
RightArm  -28.6412 -12.8746 43.2671
RightForeArm  58.3464 -5.54267 2.43225
RightHand  0.0903065 -6.22459 -14.9569
LeftUpLeg  -14.7918 -1.89297 -13.8171
LeftLeg  20.8242 15.8021 5.82525
LeftFoot  -8.61892 -0.111523 6.87075
LeftToes  5.08156e-010 -6.90346e-011 -6.33378e-011
1739
root  27.4282 38.5202 28.504 14.761 71.8763 14.0912
RightUpLeg  -23.3565 10.4237 -10.0784
RightLeg  61.4318 -2.89362 -6.26056
RightFoot  -6.97526 -0.250001 5.30881
RightToes  1.218e-010 1.26228e-014 -6.01869e-014
Spine  -4.08488 1.5904 -1.88669
Spine1  9.45876 2.00699 -4.37386
HEad  19.1498 55.275 -4.16038
LeftShoulder1  0.608399 1.14405 -22.0534
LeftArm  20.0962 1.16483 -56.5485
LeftForeArm  19.5858 -25.8525 -4.50291
LeftHand  -0.0509078 4.52384 4.49154
RightShoulder  1.44909 1.48239 24.1126
RightArm  -29.7965 -15.3644 42.4001
RightForeArm  58.3967 -5.43948 1.83017
RightHand  0.0866361 -6.21062 -14.7269
LeftUpLeg  -12.2927 -1.711 -13.7962
LeftLeg  21.0311 12.7313 4.98376
LeftFoot  -10.6425 0.0200853 7.2088
LeftToes  5.08156e-010 -6.90346e-011 -6.33378e-011
1740
root  28.6065 38.5745 28.8929 16.0089 75.6651 15.3103
RightUpLeg  -25.0446 11.0373 -10.3037
RightLeg  54.8045 -5.43196 -8.60836
RightFoot  -7.88291 -0.184342 4.32852
RightToes  1.218e-010 1.26228e-014 -6.01869e-014
Spine  -4.17706 0.846312 -2.26561
Spine1  9.01981 1.07504 -3.14948
HEad  19.2253 55.546 -3.68396
LeftShoulder1  0.720166 0.708255 -21.608
LeftArm  20.1472 -0.601738 -57.5934
LeftForeArm  21.5236 -27.4803 -4.75856
LeftHand  -0.0472375 4.54478 4.67475
RightShoulder  1.31897 0.972934 24.6817
RightArm  -30.7343 -17.7533 41.7227
RightForeArm  57.9452 -5.37109 1.33951
RightHand  0.083361 -6.21295 -14.2969
LeftUpLeg  -9.8029 -1.93446 -13.4334
LeftLeg  20.8787 9.64892 4.29523
LeftFoot  -12.2466 0.131821 7.34041
LeftToes  5.08156e-010 -6.90346e-011 -6.33378e-011
1741
root  29.7917 38.6432 29.235 17.9223 79.2674 17.067
RightUpLeg  -25.905 11.2463 -10.8005
RightLeg  45.874 -7.82457 -8.84567
RightFoot  -7.79214 -0.184466 4.24169
RightToes  1.218e-010 1.26228e-014 -6.01869e-014
Spine  -4.3245 0.171466 -2.23155
Spine1  8.62438 0.294576 -2.0904
HEad  19.0822 55.5807 -3.41695
LeftShoulder1  0.807791 0.352635 -21.2132
LeftArm  20.3959 -1.93932 -58.4983
LeftForeArm  23.1491 -28.4235 -4.88286
LeftHand  -0.0475052 4.55707 4.61189
RightShoulder  1.20153 0.544279 25.0588
RightArm  -31.7876 -19.9747 41.3544
RightForeArm  57.5682 -5.28757 0.776542
RightHand  -0.0247534 -5.31968 -12.8427
LeftUpLeg  -7.21464 -1.99762 -12.7574
LeftLeg  20.1649 6.55707 3.36324
LeftFoot  -13.6562 0.235837 7.59132
LeftToes  5.08156e-010 -6.90346e-011 -6.33378e-011
1742
root  30.983 38.7135 29.5243 20.9154 82.122 19.5524
RightUpLeg  -26.2571 11.0568 -11.6184
RightLeg  34.7023 -8.89642 -6.80449
RightFoot  -6.7753 -0.266124 5.51375
RightToes  1.218e-010 1.26228e-014 -6.01869e-014
Spine  -4.8548 -0.229762 -1.72062
Spine1  8.48233 -0.0861036 -1.43232
HEad  18.3317 55.5329 -3.90856
LeftShoulder1  0.85741 0.143346 -20.9565
LeftArm  21.2223 -2.90316 -59.0506
LeftForeArm  23.8073 -28.8312 -4.93982
LeftHand  -0.0456377 4.64029 4.73163
RightShoulder  1.1162 0.252678 25.2065
RightArm  -32.7395 -21.9177 41.2465
RightForeArm  56.2009 -5.24942 0.298519
RightHand  -0.0393249 -5.18062 -12.4244
LeftUpLeg  -4.82241 -1.87188 -11.9795
LeftLeg  18.8616 3.87347 2.48194
LeftFoot  -14.7257 0.323738 7.94346
LeftToes  5.08156e-010 -6.90346e-011 -6.33378e-011
1743
root  32.1825 38.7601 29.7803 25.1088 84.1816 23.1247
RightUpLeg  -26.0425 10.628 -12.3924
RightLeg  22.2923 -8.45398 -3.996
RightFoot  -5.26328 -0.380276 6.47971
RightToes  1.218e-010 1.26228e-014 -6.01869e-014
Spine  -5.45202 -0.347486 -0.797418
Spine1  8.46112 -0.0967253 -1.25511
HEad  17.4503 55.4815 -4.55173
LeftShoulder1  0.860741 0.117362 -20.8323
LeftArm  22.4131 -3.33283 -59.1088
LeftForeArm  23.6941 -28.8494 -4.9502
LeftHand  -0.0474577 4.66644 4.58173
RightShoulder  1.08953 0.160536 25.2674
RightArm  -33.6098 -23.5255 41.1757
RightForeArm  55.4605 -5.19511 -0.153191
RightHand  -0.061257 -4.94975 -11.94
LeftUpLeg  -2.49055 -1.56163 -11.2319
LeftLeg  17.2571 1.62944 1.77203
LeftFoot  -15.5537 0.395555 8.19402
LeftToes  5.08156e-010 -6.90346e-011 -6.33378e-011
1744
root  33.4255 38.7007 30.0486 33.146 85.7467 30.7631
RightUpLeg  -25.3495 7.44356 -11.8928
RightLeg  11.4128 -3.58583 -1.74375
RightFoot  -4.71422 -0.538227 8.72404
RightToes  1.218e-010 1.26228e-014 -6.01869e-014
Spine  -5.95659 -0.37549 -0.0836613
Spine1  8.66192 -0.0427161 -1.25022
HEad  16.5659 55.4773 -5.19423
LeftShoulder1  0.847868 0.175639 -20.9296
LeftArm  23.2171 -3.09954 -58.6055
LeftForeArm  23.3458 -28.4219 -4.87175
LeftHand  -0.0488407 4.66332 4.42617
RightShoulder  1.07878 0.133331 25.1976
RightArm  -34.3866 -24.4567 41.0721
RightForeArm  55.3359 -5.12197 -0.601457
RightHand  -0.0831193 -4.70855 -11.405
LeftUpLeg  -0.234189 -1.24134 -10.6028
LeftLeg  16.3762 -0.308933 1.21345
LeftFoot  -16.8543 0.493343 8.12438
LeftToes  5.08156e-010 -6.90346e-011 -6.33378e-011
1745
root  34.7012 38.5637 30.3411 48.3297 87.1156 45.8112
RightUpLeg  -24.6851 -0.483702 -8.25041
RightLeg  4.0315 8.38868 -2.32506
RightFoot  -5.54487 -0.546049 10.0137
RightToes  1.218e-010 1.26228e-014 -6.01869e-014
Spine  -6.55518 -0.352336 0.48872
Spine1  9.27366 -0.0281425 -1.18126
HEad  15.7674 55.2535 -5.51606
LeftShoulder1  0.853374 0.162727 -20.9979
LeftArm  24.2778 -2.40799 -57.87
LeftForeArm  21.7024 -27.2172 -4.69002
LeftHand  -0.0447928 4.76632 4.68454
RightShoulder  1.08102 0.14304 25.1739
RightArm  -34.6962 -24.9061 40.7916
RightForeArm  55.1532 -5.09025 -0.81837
RightHand  -0.0865791 -4.6566 -11.1409
LeftUpLeg  1.90592 -1.52262 -10.0063
LeftLeg  16.3836 -1.47492 1.04279
LeftFoot  -18.4454 0.599756 7.85973
LeftToes  5.08156e-010 -6.90346e-011 -6.33378e-011
1746
root  36.0321 38.3108 30.6756 79.3055 87.7106 76.8707
RightUpLeg  -24.891 -1.61471 -7.63204
RightLeg  2.77409 11.6854 -2.21013
RightFoot  -7.7114 -0.411071 11.2777
RightToes  1.218e-010 1.26228e-014 -6.01869e-014
Spine  -6.76317 -0.279643 0.516011
Spine1  9.43989 0.0594886 -1.23922
HEad  16.0454 55.0604 -4.90001
LeftShoulder1  0.807232 0.349881 -21.1658
LeftArm  26.0687 -1.39143 -57.0789
LeftForeArm  18.959 -24.8819 -4.32596
LeftHand  -0.0426823 4.76992 4.744
RightShoulder  1.08107 0.141626 25.1889
RightArm  -34.351 -24.9988 40.1634
RightForeArm  55.1221 -5.11073 -0.704952
RightHand  -0.0784964 -4.74156 -11.0911
LeftUpLeg  3.61245 -2.46921 -9.69485
LeftLeg  17.9925 -1.91435 0.856702
LeftFoot  -20.3502 0.66511 6.87911
LeftToes  5.08156e-010 -6.90346e-011 -6.33378e-011
1747
root  37.3871 38.1241 31.0232 100.808 87.882 98.5537
RightUpLeg  -25.7638 1.90623 -8.36682
RightLeg  7.175 10.1219 -0.985194
RightFoot  -6.69659 -0.552774 12.4562
RightToes  1.218e-010 1.26228e-014 -6.01869e-014
Spine  -6.98276 0.0563626 1.11348
Spine1  9.97346 0.372843 -1.46412
HEad  16.4704 55.6378 -4.21517
LeftShoulder1  0.712962 0.734549 -21.6115
LeftArm  26.6938 -0.0534585 -55.7977
LeftForeArm  16.5383 -21.7077 -4.66734
LeftHand  -0.0439882 4.81681 4.61837
RightShoulder  1.1194 0.262817 25.2079
RightArm  -33.8581 -24.4957 39.5446
RightForeArm  55.2254 -5.13983 -0.517351
RightHand  -0.0655162 -4.89499 -11.419
LeftUpLeg  5.25863 -3.82153 -9.04733
LeftLeg  19.8093 -1.48062 0.5032
LeftFoot  -21.4147 0.602658 5.3723
LeftToes  5.08156e-010 -6.90346e-011 -6.33378e-011
1748
root  38.7606 38.0876 31.3468 128.305 88.178 126.365
RightUpLeg  -26.2413 8.19534 -9.32615
RightLeg  11.483 6.30318 -0.579889
RightFoot  -1.04598 -1.17234 12.8834
RightToes  1.218e-010 1.26228e-014 -6.01869e-014
Spine  -7.18781 0.367233 2.47144
Spine1  10.7352 0.558131 -1.4742
HEad  16.6059 57.5607 -3.53462
LeftShoulder1  0.602399 1.18382 -22.3133
LeftArm  20.8342 1.7999 -53.595
LeftForeArm  19.6582 -17.3428 -7.59267
LeftHand  -0.0397813 4.9717 4.8929
RightShoulder  1.13348 0.302656 25.2573
RightArm  -33.1403 -23.3817 38.8983
RightForeArm  55.1907 -5.19333 -0.211984
RightHand  -0.0593477 -4.97768 -12.0417
LeftUpLeg  7.06382 -5.58807 -8.02008
LeftLeg  21.4305 -0.748002 0.0727893
LeftFoot  -20.8669 0.366524 2.89397
LeftToes  5.08156e-010 -6.90346e-011 -6.33378e-011
